<svg version="1.1" id="Layer_1" xmlns="http://www.w3.org/2000/svg" xmlns:xlink="http://www.w3.org/1999/xlink" x="0px" y="0px"
	 width="100%" viewBox="0 0 4096 4055" enable-background="new 0 0 4096 4055" xml:space="preserve">
<path fill="#000000" opacity="1.000000" stroke="none" 
	d="
M2266.000000,4058.000000 
	C1510.666626,4058.000000 756.333313,4058.000000 2.000000,4058.000000 
	C2.000000,2706.000000 2.000000,1354.000000 2.000000,2.000000 
	C1367.333374,2.000000 2732.666748,2.000000 4098.000000,2.000000 
	C4098.000000,1354.000000 4098.000000,2706.000000 4098.000000,4058.000000 
	C3487.666748,4058.000000 2877.333252,4058.000000 2266.000000,4058.000000 
M2640.622314,2361.213379 
	C2640.622314,2361.213379 2639.960449,2360.548096 2639.920410,2360.176025 
	C2639.920410,2360.176025 2639.345947,2359.764404 2638.790527,2359.003174 
	C2638.790527,2359.003174 2638.106689,2358.354736 2637.926270,2357.863770 
	C2637.720703,2357.552246 2637.443604,2357.328369 2636.924561,2356.778320 
	C2636.924561,2356.778320 2636.565918,2356.510986 2636.168213,2355.789062 
	C2635.510010,2355.225830 2634.851807,2354.662842 2633.818115,2353.235352 
	C2633.478271,2352.666992 2632.990967,2352.289307 2631.670166,2350.872559 
	C2625.578857,2343.945312 2619.487549,2337.017822 2612.825684,2329.311279 
	C2612.562988,2328.723389 2612.308350,2328.131836 2612.096924,2326.737305 
	C2611.926025,2326.201416 2611.584961,2325.816406 2610.431152,2324.322510 
	C2592.583252,2300.591309 2579.824707,2274.692871 2574.172607,2245.202881 
	C2570.067139,2223.781494 2564.470703,2202.627441 2559.024658,2181.486572 
	C2554.027344,2162.088135 2542.473877,2146.367920 2527.383057,2133.963379 
	C2511.225586,2120.682129 2493.646484,2109.125000 2476.633789,2096.890625 
	C2457.995117,2083.486816 2438.515137,2071.118164 2420.808105,2056.585205 
	C2395.780518,2036.043945 2374.763672,2011.344360 2354.135986,1986.457397 
	C2320.132568,1945.433105 2286.742676,1903.831665 2249.422119,1865.749634 
	C2223.575195,1839.375122 2196.538086,1814.140137 2169.489990,1788.979248 
	C2152.431641,1773.110962 2134.220215,1758.489746 2116.818604,1742.980835 
	C2105.831299,1733.188843 2096.619873,1722.009155 2089.966553,1708.559448 
	C2078.393311,1685.163330 2073.825928,1660.230835 2072.119385,1634.597412 
	C2070.502441,1610.311768 2074.557861,1586.758667 2083.291748,1564.113281 
	C2103.054688,1512.872437 2123.075439,1461.731323 2142.953613,1410.534912 
	C2144.181641,1407.371826 2145.081055,1404.080933 2146.434570,1399.925171 
	C2141.804199,1399.925171 2138.834473,1399.930054 2135.864502,1399.924316 
	C2078.896484,1399.816406 2021.927979,1399.776611 1964.960327,1399.534912 
	C1954.648804,1399.491089 1944.340820,1398.616699 1933.307251,1397.666138 
	C1932.202515,1397.732178 1931.097656,1397.798340 1928.191406,1397.851685 
	C1922.261963,1397.415283 1916.319214,1397.111084 1910.405273,1396.519165 
	C1887.757324,1394.252563 1865.118652,1391.893555 1841.835815,1388.281250 
	C1839.125610,1387.689087 1836.415405,1387.096924 1831.974121,1386.422241 
	C1815.401489,1383.953125 1798.386108,1384.653442 1782.263428,1378.809448 
	C1775.777832,1376.458740 1768.893677,1375.004517 1762.591675,1380.406250 
	C1760.675659,1382.048462 1757.786499,1382.634399 1755.268555,1383.483887 
	C1716.781006,1396.467163 1679.131470,1411.550659 1642.167969,1428.377686 
	C1618.564209,1439.123047 1594.909058,1449.756592 1571.256104,1460.393555 
	C1562.250732,1464.443359 1556.600342,1470.645752 1556.595093,1482.777954 
	C1556.430054,1491.309692 1555.269043,1499.966064 1556.316406,1508.346191 
	C1558.229004,1523.648438 1561.449219,1538.787354 1564.098022,1555.580811 
	C1565.724854,1561.606201 1567.283813,1567.650757 1568.989624,1573.653687 
	C1579.920776,1612.122925 1599.501587,1645.953735 1625.283325,1676.171021 
	C1650.088623,1705.243896 1679.607300,1729.098877 1710.966919,1750.753174 
	C1747.303467,1775.844238 1780.546387,1804.375610 1809.399414,1837.981934 
	C1833.261963,1865.775757 1857.519165,1893.238037 1881.959106,1920.526978 
	C1908.838501,1950.540039 1936.806030,1979.603149 1963.055542,2010.149048 
	C1992.342285,2044.229492 2020.814941,2079.052979 2048.571289,2114.393799 
	C2079.501953,2153.776855 2105.282227,2196.580566 2128.408203,2240.983887 
	C2130.921143,2245.808838 2131.359619,2250.418945 2129.155762,2255.317139 
	C2127.107910,2259.869141 2124.853271,2264.336670 2122.996338,2268.964355 
	C2120.784180,2274.478027 2118.898926,2280.122803 2116.656006,2287.000000 
	C2116.772949,2287.419678 2116.890137,2287.839111 2117.006104,2289.579590 
	C2117.076172,2292.213867 2117.146484,2294.848389 2116.765137,2298.168701 
	C2117.099121,2298.838135 2117.433105,2299.507812 2118.487793,2301.313477 
	C2130.025146,2309.201416 2141.845947,2316.709961 2153.029785,2325.070801 
	C2167.671875,2336.016602 2182.485352,2346.890137 2196.011719,2359.135254 
	C2217.500732,2378.589111 2232.646240,2403.022461 2246.189697,2428.400879 
	C2264.558838,2462.820557 2279.448242,2498.814941 2293.932861,2534.982910 
	C2315.103760,2587.846924 2335.669922,2640.962646 2357.580322,2693.518311 
	C2382.552246,2753.416504 2408.600586,2812.867920 2434.398926,2872.419434 
	C2458.487305,2928.022949 2482.759766,2983.546875 2507.134521,3039.025635 
	C2534.455078,3101.209473 2561.979492,3163.303467 2589.417480,3225.435547 
	C2603.134033,3256.495361 2616.577148,3287.679932 2630.639893,3318.582031 
	C2652.435547,3366.476562 2673.562988,3414.593506 2690.052734,3464.671387 
	C2696.074951,3482.958984 2704.149414,3500.583496 2711.573486,3518.391357 
	C2715.382812,3527.528809 2721.800293,3534.697510 2731.292236,3541.022949 
	C2743.381592,3546.686035 2754.695557,3544.108887 2766.862061,3537.091064 
	C2772.694580,3533.299561 2779.433594,3530.398926 2784.194092,3525.554199 
	C2800.020508,3509.448730 2815.066895,3492.579590 2830.544678,3476.127686 
	C2843.750244,3462.091309 2856.591553,3447.649414 2870.565674,3434.412598 
	C2895.456055,3410.835205 2925.091553,3394.293701 2955.854004,3379.700439 
	C2994.895264,3361.180420 3034.152832,3343.105713 3072.981445,3324.151367 
	C3094.828369,3313.486816 3115.079834,3300.050049 3134.656494,3283.694824 
	C3135.008057,3283.046387 3135.359619,3282.398193 3135.883301,3281.780518 
	C3135.883301,3281.780518 3135.739014,3281.681885 3136.769287,3280.768799 
	C3140.469727,3278.053467 3144.170410,3275.338135 3149.075195,3271.862061 
	C3174.371094,3254.016602 3199.734863,3236.266602 3224.919678,3218.265625 
	C3232.210449,3213.054932 3239.512207,3207.661377 3245.895996,3201.418457 
	C3263.770020,3183.938721 3267.112305,3163.927979 3256.854004,3141.124268 
	C3249.281006,3124.289795 3239.020264,3109.171631 3227.582764,3094.785156 
	C3190.491943,3048.130127 3153.331055,3001.530518 3116.347168,2954.791260 
	C3083.699707,2913.531738 3051.329590,2872.052734 3018.696289,2830.781738 
	C2986.065674,2789.514160 2953.389893,2748.280762 2920.482910,2707.233398 
	C2901.323242,2683.334229 2881.506104,2659.962646 2862.280762,2636.115234 
	C2836.576660,2604.230957 2811.249756,2572.042725 2785.594971,2540.118408 
	C2755.556885,2502.739990 2725.401855,2465.455078 2695.178955,2428.226318 
	C2677.551270,2406.512207 2659.690918,2384.987549 2641.915527,2362.785156 
	C2641.788818,2362.394531 2641.532471,2362.130127 2640.622314,2361.213379 
M735.394043,1064.005615 
	C736.956055,1063.294067 738.518066,1062.582642 741.230530,1061.189819 
	C755.427368,1053.130737 765.778870,1040.933472 775.570374,1028.365356 
	C789.781738,1010.124084 804.988892,993.505066 826.628906,983.491516 
	C841.142944,976.775513 856.128784,973.682190 873.365417,973.079407 
	C881.044495,973.209106 888.723633,973.338867 898.109375,973.555664 
	C905.296509,974.850403 912.727600,975.386963 919.618347,977.603210 
	C932.611816,981.782349 945.437805,986.578308 958.072876,991.753967 
	C978.167908,999.985352 997.473816,1009.813660 1014.725525,1023.187378 
	C1027.929688,1033.423340 1040.688721,1044.273315 1049.556396,1058.681519 
	C1070.088379,1092.041626 1075.283081,1127.345215 1062.823120,1165.005981 
	C1047.674438,1210.793335 1026.500122,1253.776855 1002.692383,1295.524414 
	C987.015869,1323.013794 970.158875,1349.809814 957.734314,1379.084351 
	C946.554565,1405.425659 940.373596,1432.295044 946.018188,1460.896606 
	C952.658325,1494.542725 967.890076,1523.606567 992.774109,1547.440063 
	C1022.106262,1575.533813 1055.071777,1598.605713 1090.995361,1617.338013 
	C1105.428833,1624.864258 1120.325928,1631.816772 1136.587402,1634.809448 
	C1145.423950,1636.435791 1154.319580,1637.739014 1163.185059,1639.209351 
	C1199.930664,1645.303101 1235.355103,1641.145020 1269.909180,1626.948608 
	C1298.697144,1615.121094 1323.354492,1597.203369 1347.191284,1577.786255 
	C1365.790283,1562.635620 1384.139404,1547.152222 1403.179932,1532.574707 
	C1445.733276,1499.995361 1492.573364,1474.545654 1541.029907,1452.071289 
	C1577.597900,1435.110718 1614.638794,1419.172607 1651.382812,1402.588257 
	C1703.696777,1378.976807 1756.831543,1357.625732 1812.649902,1343.650513 
	C1828.284302,1339.736084 1842.904053,1333.426392 1857.239258,1326.263184 
	C1876.676025,1316.550781 1892.565063,1302.435425 1906.327148,1285.940430 
	C1924.796021,1263.804321 1938.788574,1238.797607 1951.711304,1213.144287 
	C1973.373779,1170.141724 1989.276001,1124.873413 2004.121094,1079.230835 
	C2015.664551,1043.739746 2026.130005,1007.899536 2037.455933,972.335938 
	C2054.339600,919.320679 2071.412842,866.364441 2088.689697,813.475952 
	C2099.766846,779.565491 2110.269043,745.506226 2117.725586,710.593323 
	C2125.172119,675.728027 2132.112549,640.753479 2139.723633,605.924866 
	C2146.142578,576.551575 2149.777344,546.865967 2152.444092,516.946777 
	C2154.363037,495.416473 2158.228027,474.061676 2161.132324,452.616058 
	C2162.158936,445.032837 2163.557617,437.420013 2163.648438,429.807129 
	C2163.822021,415.238464 2161.870361,400.791260 2163.628906,386.041931 
	C2164.820312,376.046295 2162.331055,365.507904 2160.795654,355.316559 
	C2158.763428,341.830231 2155.587402,328.509003 2153.762939,315.000671 
	C2151.759521,300.164520 2151.296875,285.115387 2149.167725,270.302094 
	C2144.144043,235.350418 2138.695312,200.456848 2133.071045,165.595779 
	C2130.831787,151.715317 2126.333252,138.456619 2119.516113,126.051903 
	C2116.964600,121.409073 2114.014893,119.316032 2108.243164,121.153946 
	C2062.191650,135.818085 2016.165527,150.528122 1972.334106,171.195862 
	C1955.104736,179.319931 1938.975220,189.287689 1923.555420,200.487167 
	C1904.302246,214.470856 1886.651123,229.991302 1872.575928,249.402283 
	C1864.756104,260.186646 1856.093140,270.355957 1848.068726,280.997375 
	C1844.230713,286.087036 1840.035278,288.195099 1833.495483,286.479309 
	C1822.868774,283.691254 1812.031372,281.715637 1801.311768,279.269928 
	C1784.552002,275.446106 1767.808350,274.914459 1750.715088,277.447052 
	C1715.790894,282.621552 1682.997192,294.426666 1650.429199,307.449707 
	C1600.628052,327.363800 1550.955933,347.704254 1500.528198,365.924133 
	C1418.319824,395.626587 1333.951660,417.850586 1248.176880,434.775085 
	C1240.851807,436.220459 1233.026855,439.069427 1227.235229,443.579254 
	C1212.487915,455.062775 1201.815552,470.329712 1196.760376,488.280914 
	C1184.950439,530.217896 1164.168335,566.489990 1130.189453,593.942627 
	C1108.726318,611.283264 1086.031860,627.251892 1062.943970,642.393738 
	C1028.125854,665.228882 992.310669,686.537476 957.236023,708.989685 
	C922.463867,731.248230 886.287048,751.341736 853.876404,777.262573 
	C826.571167,799.100281 797.394409,818.521790 771.495117,842.218018 
	C731.624451,878.697144 700.596069,920.840759 685.285034,973.320129 
	C682.402710,983.199463 679.660400,993.359131 678.877808,1003.545044 
	C678.070374,1014.054749 678.420715,1025.035645 680.623474,1035.304443 
	C683.902344,1050.589600 695.041443,1059.496826 711.249817,1064.731201 
	C718.889771,1066.556763 726.499207,1067.204834 734.059265,1064.130371 
	C734.059265,1064.130371 734.105713,1064.117798 735.394043,1064.005615 
M2356.304199,510.286102 
	C2350.161377,493.062714 2344.686523,475.561859 2337.679443,458.697632 
	C2331.274414,443.282990 2312.744629,439.701935 2300.388916,450.785217 
	C2295.977051,454.742676 2291.974609,459.370178 2288.639648,464.273010 
	C2279.803711,477.262787 2273.193115,491.375000 2268.059326,506.272949 
	C2257.822998,535.978577 2251.735107,566.631775 2246.596680,597.504578 
	C2244.471436,610.271973 2243.066406,623.159241 2240.851074,637.681519 
	C2239.818115,644.597046 2238.749268,651.507446 2237.758789,658.429016 
	C2234.691650,679.859863 2231.552246,701.281067 2228.659668,722.735535 
	C2227.601318,730.587097 2226.607178,738.518860 2226.570312,746.418640 
	C2226.523682,756.375305 2227.860840,766.334351 2227.922852,776.296570 
	C2228.003662,789.302368 2232.555664,800.419617 2241.038330,809.935791 
	C2246.351318,815.896240 2252.133545,821.456238 2257.904785,826.987488 
	C2289.626709,857.390259 2317.080322,891.011353 2337.500000,930.185974 
	C2348.275635,950.858215 2359.600830,971.266357 2371.370605,991.388428 
	C2377.228271,1001.402771 2383.830322,1011.229858 2391.516357,1019.878967 
	C2412.882812,1043.922363 2440.606445,1057.196777 2471.610596,1063.883545 
	C2478.683350,1065.408813 2486.242920,1065.947510 2493.447998,1065.354858 
	C2517.352295,1063.388428 2540.191895,1057.142578 2560.058594,1043.315430 
	C2574.504883,1033.260742 2588.095947,1021.948242 2601.792236,1010.855225 
	C2611.880371,1002.684509 2621.342041,993.741455 2631.402588,985.534729 
	C2648.926270,971.240234 2669.431152,962.298279 2690.198242,954.037964 
	C2762.013428,925.472839 2834.071533,897.509949 2905.688721,868.459167 
	C2950.431641,850.309753 2994.522705,830.556580 3038.965820,811.663574 
	C3049.069824,807.368347 3056.052002,800.112122 3060.281006,790.287964 
	C3063.032227,783.897949 3065.456299,777.253357 3067.022705,770.490234 
	C3070.629883,754.916565 3074.040771,739.271118 3076.694824,723.513916 
	C3078.062500,715.393188 3078.354980,706.929260 3077.869873,698.694946 
	C3077.065430,685.043213 3073.970703,682.022522 3060.653564,679.754272 
	C3037.345215,675.784058 3013.948486,672.302612 2990.706055,667.985291 
	C2973.707520,664.827759 2956.588135,661.685303 2940.071289,656.713196 
	C2911.220215,648.028198 2893.077881,628.137756 2883.163330,599.682434 
	C2875.851318,578.696716 2875.804199,557.897827 2880.736328,536.734070 
	C2884.817871,519.220581 2889.348145,501.811646 2893.435791,484.299500 
	C2894.265625,480.744781 2896.792236,476.890533 2893.044434,472.328583 
	C2889.754639,474.000854 2886.407227,475.359741 2883.422607,477.281525 
	C2873.061523,483.952728 2862.565430,490.459259 2852.589844,497.677155 
	C2818.837402,522.099487 2786.255859,547.982117 2754.979980,575.553223 
	C2718.996826,607.274170 2682.429199,638.307373 2648.572021,672.390442 
	C2628.492676,692.603882 2604.804199,708.244385 2580.112061,722.296753 
	C2570.156738,727.962219 2559.473877,731.804932 2547.901611,732.055969 
	C2533.582520,732.366516 2519.231201,732.722839 2504.939941,732.061829 
	C2498.493652,731.763672 2491.615479,730.125671 2485.880859,727.223389 
	C2471.857666,720.126343 2459.355713,710.794006 2448.707764,698.958862 
	C2431.146973,679.440125 2417.988281,657.057678 2406.073975,633.945312 
	C2389.095459,601.009399 2375.697021,566.543701 2364.020996,531.393372 
	C2361.823242,524.776611 2359.005371,518.365723 2356.304199,510.286102 
M1940.215454,2029.100586 
	C1940.080444,2027.412109 1939.945557,2025.723755 1939.844604,2022.553711 
	C1938.534668,2019.586914 1937.785156,2016.167603 1935.818237,2013.731323 
	C1927.032349,2002.849487 1918.198242,1991.978516 1908.839233,1981.592285 
	C1868.477173,1936.799316 1828.056274,1892.057251 1787.335571,1847.591064 
	C1778.654297,1838.111084 1768.630493,1829.860596 1758.874634,1820.715088 
	C1750.210938,1831.647339 1743.700806,1844.287842 1737.906616,1857.355469 
	C1724.130737,1888.423950 1710.519653,1919.567383 1696.495239,1950.523315 
	C1688.115601,1969.019409 1679.021851,1987.190674 1670.353760,2005.557373 
	C1654.302002,2039.569458 1639.635864,2074.259033 1618.901733,2105.905518 
	C1601.123413,2133.040527 1580.618774,2157.074707 1550.917480,2171.928955 
	C1541.404541,2176.686523 1532.311035,2182.329834 1523.249756,2187.930664 
	C1514.548218,2193.308838 1507.757568,2200.557129 1504.176025,2210.364746 
	C1500.765015,2219.705078 1496.963745,2228.946777 1494.277100,2238.497070 
	C1490.435669,2252.152832 1487.747192,2266.129639 1484.048462,2279.829590 
	C1472.805420,2321.471924 1454.262939,2359.444336 1427.631714,2393.584229 
	C1404.946411,2422.665527 1377.886230,2447.360840 1350.958618,2472.187988 
	C1316.629517,2503.838867 1279.955078,2532.645508 1242.369019,2560.347656 
	C1202.684204,2589.597412 1163.864380,2620.011230 1122.157471,2646.461914 
	C1080.245239,2673.043213 1039.065186,2700.797363 996.825806,2726.839355 
	C940.123169,2761.799072 882.700073,2795.589600 825.607361,2829.916992 
	C763.661682,2867.162109 701.550232,2904.137207 639.918579,2941.895264 
	C620.370117,2953.871094 601.453125,2967.099121 586.616943,2985.199707 
	C579.731567,2993.600098 576.721558,3002.904053 576.352661,3013.688232 
	C575.667664,3033.711914 582.640198,3051.607178 590.482361,3069.367676 
	C602.519775,3096.628662 618.562378,3121.587646 635.435425,3145.968994 
	C646.038391,3161.289795 657.048401,3176.504395 669.416809,3190.394531 
	C704.412659,3229.696045 745.416382,3262.043213 789.043091,3291.267578 
	C831.460022,3319.681641 877.626343,3340.135742 925.812683,3356.185547 
	C960.586243,3367.767822 996.158447,3375.893555 1032.643799,3380.745605 
	C1066.086548,3385.192871 1095.412354,3378.162109 1121.218506,3356.589844 
	C1139.732910,3341.113281 1155.560913,3323.103516 1169.697510,3303.632812 
	C1193.772583,3270.473633 1217.478271,3237.046143 1241.594238,3203.916992 
	C1266.692017,3169.439453 1292.089233,3135.179932 1317.360474,3100.828857 
	C1344.010010,3064.604492 1370.719971,3028.424316 1397.294312,2992.144775 
	C1410.483643,2974.138428 1423.379028,2955.917480 1436.495361,2937.857666 
	C1455.286987,2911.983643 1474.452881,2886.375732 1492.920288,2860.273193 
	C1514.470947,2829.812500 1535.442749,2798.942383 1556.663940,2768.248779 
	C1598.155273,2708.237061 1639.885620,2648.388184 1681.015503,2588.129883 
	C1697.075684,2564.600830 1717.018799,2546.476318 1743.608643,2535.774170 
	C1756.883789,2530.430908 1770.472168,2525.451660 1782.894531,2518.482178 
	C1819.525269,2497.929932 1836.046265,2465.085449 1838.778809,2423.064453 
	C1839.503052,2421.294678 1840.227295,2419.524902 1841.171875,2416.219727 
	C1841.368286,2414.161621 1841.564697,2412.103760 1842.430298,2408.898682 
	C1842.592163,2407.174072 1842.754028,2405.449219 1843.139648,2402.307373 
	C1843.291992,2400.880371 1843.444458,2399.453613 1844.197021,2397.124023 
	C1844.143188,2395.391357 1844.089355,2393.658447 1843.988159,2390.311279 
	C1846.782471,2381.518066 1848.822876,2372.600098 1848.503906,2363.284912 
	C1848.493286,2362.975098 1848.715820,2362.660400 1848.813599,2362.343018 
	C1853.670898,2346.591553 1858.063477,2330.678223 1863.476929,2315.120361 
	C1875.265137,2281.242676 1887.782715,2247.619141 1899.610107,2213.754883 
	C1911.354980,2180.126709 1921.226196,2145.951904 1928.573853,2111.054688 
	C1934.073975,2084.931885 1941.615967,2059.129883 1939.488037,2031.967285 
	C1939.436768,2031.313354 1939.594849,2030.643066 1940.215454,2029.100586 
z"/>
<path fill="#2A5C3F" opacity="1.000000" stroke="none" 
	d="
M871.794922,972.583252 
	C856.128784,973.682190 841.142944,976.775513 826.628906,983.491516 
	C804.988892,993.505066 789.781738,1010.124084 775.570374,1028.365356 
	C765.778870,1040.933472 755.427368,1053.130737 740.008057,1061.604736 
	C737.225647,1062.719116 735.665649,1063.418457 734.105713,1064.117798 
	C734.105713,1064.117798 734.059265,1064.130371 733.116028,1064.079834 
	C724.689209,1064.039307 717.205688,1064.049316 709.722107,1064.059326 
	C695.041443,1059.496826 683.902344,1050.589600 680.623474,1035.304443 
	C678.420715,1025.035645 678.070374,1014.054749 678.877808,1003.545044 
	C679.660400,993.359131 682.402710,983.199463 685.285034,973.320129 
	C700.596069,920.840759 731.624451,878.697144 771.495117,842.218018 
	C797.394409,818.521790 826.571167,799.100281 853.876404,777.262573 
	C886.287048,751.341736 922.463867,731.248230 957.236023,708.989685 
	C992.310669,686.537476 1028.125854,665.228882 1062.943970,642.393738 
	C1086.031860,627.251892 1108.726318,611.283264 1130.189453,593.942627 
	C1164.168335,566.489990 1184.950439,530.217896 1196.760376,488.280914 
	C1201.815552,470.329712 1212.487915,455.062775 1227.235229,443.579254 
	C1233.026855,439.069427 1240.851807,436.220459 1248.176880,434.775085 
	C1333.951660,417.850586 1418.319824,395.626587 1500.528198,365.924133 
	C1550.955933,347.704254 1600.628052,327.363800 1650.429199,307.449707 
	C1682.997192,294.426666 1715.790894,282.621552 1750.715088,277.447052 
	C1767.808350,274.914459 1784.552002,275.446106 1801.311768,279.269928 
	C1812.031372,281.715637 1822.868774,283.691254 1833.495483,286.479309 
	C1840.035278,288.195099 1844.230713,286.087036 1848.068726,280.997375 
	C1856.093140,270.355957 1864.756104,260.186646 1872.575928,249.402283 
	C1886.651123,229.991302 1904.302246,214.470856 1923.555420,200.487167 
	C1938.975220,189.287689 1955.104736,179.319931 1972.334106,171.195862 
	C2016.165527,150.528122 2062.191650,135.818085 2108.243164,121.153946 
	C2114.014893,119.316032 2116.964600,121.409073 2119.516113,126.051903 
	C2126.333252,138.456619 2130.831787,151.715317 2133.071045,165.595779 
	C2138.695312,200.456848 2144.144043,235.350418 2149.167725,270.302094 
	C2151.296875,285.115387 2151.759521,300.164520 2153.762939,315.000671 
	C2155.587402,328.509003 2158.763428,341.830231 2160.795654,355.316559 
	C2162.331055,365.507904 2164.820312,376.046295 2163.628906,386.041931 
	C2161.870361,400.791260 2163.822021,415.238464 2163.648438,429.807129 
	C2163.557617,437.420013 2162.158936,445.032837 2161.132324,452.616058 
	C2158.228027,474.061676 2154.363037,495.416473 2152.444092,516.946777 
	C2149.777344,546.865967 2146.142578,576.551575 2139.723633,605.924866 
	C2132.112549,640.753479 2125.172119,675.728027 2117.725586,710.593323 
	C2110.269043,745.506226 2099.766846,779.565491 2088.689697,813.475952 
	C2071.412842,866.364441 2054.339600,919.320679 2037.455933,972.335938 
	C2026.130005,1007.899536 2015.664551,1043.739746 2004.121094,1079.230835 
	C1989.276001,1124.873413 1973.373779,1170.141724 1951.711304,1213.144287 
	C1938.788574,1238.797607 1924.796021,1263.804321 1906.327148,1285.940430 
	C1892.565063,1302.435425 1876.676025,1316.550781 1857.239258,1326.263184 
	C1842.904053,1333.426392 1828.284302,1339.736084 1812.649902,1343.650513 
	C1756.831543,1357.625732 1703.696777,1378.976807 1651.382812,1402.588257 
	C1614.638794,1419.172607 1577.597900,1435.110718 1541.029907,1452.071289 
	C1492.573364,1474.545654 1445.733276,1499.995361 1403.179932,1532.574707 
	C1384.139404,1547.152222 1365.790283,1562.635620 1347.191284,1577.786255 
	C1323.354492,1597.203369 1298.697144,1615.121094 1269.909180,1626.948608 
	C1235.355103,1641.145020 1199.930664,1645.303101 1163.185059,1639.209351 
	C1154.319580,1637.739014 1145.423950,1636.435791 1136.587402,1634.809448 
	C1120.325928,1631.816772 1105.428833,1624.864258 1090.995361,1617.338013 
	C1055.071777,1598.605713 1022.106262,1575.533813 992.774109,1547.440063 
	C967.890076,1523.606567 952.658325,1494.542725 946.018188,1460.896606 
	C940.373596,1432.295044 946.554565,1405.425659 957.734314,1379.084351 
	C970.158875,1349.809814 987.015869,1323.013794 1002.692383,1295.524414 
	C1026.500122,1253.776855 1047.674438,1210.793335 1062.823120,1165.005981 
	C1075.283081,1127.345215 1070.088379,1092.041626 1049.556396,1058.681519 
	C1040.688721,1044.273315 1027.929688,1033.423340 1014.725525,1023.187378 
	C997.473816,1009.813660 978.167908,999.985352 958.072876,991.753967 
	C945.437805,986.578308 932.611816,981.782349 919.618347,977.603210 
	C912.727600,975.386963 905.296509,974.850403 896.468262,973.205811 
	C887.149719,972.765015 879.472351,972.674133 871.794922,972.583252 
M1412.104736,969.083679 
	C1428.185547,952.780457 1446.762207,940.150269 1467.352051,930.107605 
	C1485.905396,921.058167 1504.143433,911.319763 1522.193237,901.296021 
	C1533.537964,894.995911 1544.797241,888.137573 1552.685303,877.424500 
	C1561.965698,864.820251 1571.609985,852.365295 1579.601685,838.954895 
	C1596.984985,809.785034 1612.941895,779.763855 1630.384033,750.630676 
	C1645.917969,724.684265 1655.362793,696.216919 1666.677246,668.501038 
	C1667.803833,665.741150 1668.830933,662.837646 1669.239014,659.908081 
	C1670.210449,652.935669 1667.092041,649.858337 1660.143433,650.857727 
	C1656.532471,651.377197 1653.001953,652.466675 1649.441284,653.324158 
	C1606.704102,663.615479 1563.942749,673.808105 1521.244263,684.257812 
	C1504.446411,688.368835 1487.739258,692.876953 1471.090332,697.558533 
	C1462.738403,699.907104 1456.548218,705.442932 1452.012695,712.828247 
	C1444.342285,725.317688 1436.466431,737.684631 1428.993286,750.290710 
	C1415.910767,772.359192 1403.636353,794.926086 1390.015991,816.652649 
	C1351.766968,877.665955 1314.966797,939.490173 1284.178955,1004.658203 
	C1277.107056,1019.626831 1271.532227,1035.486816 1267.080444,1051.442139 
	C1264.273804,1061.501099 1263.691528,1072.549927 1264.159302,1083.063721 
	C1264.806641,1097.609009 1274.759399,1103.213257 1287.609131,1096.738770 
	C1295.557373,1092.734009 1303.233154,1087.706055 1309.997681,1081.927368 
	C1328.545898,1066.082520 1344.253662,1047.503906 1359.853149,1028.787354 
	C1376.478271,1008.840393 1393.975830,989.620483 1412.104736,969.083679 
z"/>
<path fill="#2075AB" opacity="1.000000" stroke="none" 
	d="
M2730.174805,3540.051270 
	C2721.800293,3534.697510 2715.382812,3527.528809 2711.573486,3518.391357 
	C2704.149414,3500.583496 2696.074951,3482.958984 2690.052734,3464.671387 
	C2673.562988,3414.593506 2652.435547,3366.476562 2630.639893,3318.582031 
	C2616.577148,3287.679932 2603.134033,3256.495361 2589.417480,3225.435547 
	C2561.979492,3163.303467 2534.455078,3101.209473 2507.134521,3039.025635 
	C2482.759766,2983.546875 2458.487305,2928.022949 2434.398926,2872.419434 
	C2408.600586,2812.867920 2382.552246,2753.416504 2357.580322,2693.518311 
	C2335.669922,2640.962646 2315.103760,2587.846924 2293.932861,2534.982910 
	C2279.448242,2498.814941 2264.558838,2462.820557 2246.189697,2428.400879 
	C2232.646240,2403.022461 2217.500732,2378.589111 2196.011719,2359.135254 
	C2182.485352,2346.890137 2167.671875,2336.016602 2153.029785,2325.070801 
	C2141.845947,2316.709961 2130.025146,2309.201416 2118.075684,2300.054688 
	C2117.514648,2298.357910 2117.365723,2297.920410 2117.216797,2297.482666 
	C2117.146484,2294.848389 2117.076172,2292.213867 2117.211914,2288.625000 
	C2117.235840,2287.017090 2117.053955,2286.364014 2116.872070,2285.710938 
	C2118.898926,2280.122803 2120.784180,2274.478027 2122.996338,2268.964355 
	C2124.853271,2264.336670 2127.107910,2259.869141 2129.155762,2255.317139 
	C2131.359619,2250.418945 2130.921143,2245.808838 2128.408203,2240.983887 
	C2105.282227,2196.580566 2079.501953,2153.776855 2048.571289,2114.393799 
	C2020.814941,2079.052979 1992.342285,2044.229492 1963.055542,2010.149048 
	C1936.806030,1979.603149 1908.838501,1950.540039 1881.959106,1920.526978 
	C1857.519165,1893.238037 1833.261963,1865.775757 1809.399414,1837.981934 
	C1780.546387,1804.375610 1747.303467,1775.844238 1710.966919,1750.753174 
	C1679.607300,1729.098877 1650.088623,1705.243896 1625.283325,1676.171021 
	C1599.501587,1645.953735 1579.920776,1612.122925 1568.989624,1573.653687 
	C1567.283813,1567.650757 1565.724854,1561.606201 1564.326904,1554.136353 
	C1563.217285,1543.598389 1561.490112,1534.541382 1560.628540,1525.402954 
	C1559.241455,1510.690796 1558.425537,1495.924683 1557.368286,1481.181396 
	C1556.600342,1470.645752 1562.250732,1464.443359 1571.256104,1460.393555 
	C1594.909058,1449.756592 1618.564209,1439.123047 1642.167969,1428.377686 
	C1679.131470,1411.550659 1716.781006,1396.467163 1755.268555,1383.483887 
	C1757.786499,1382.634399 1760.675659,1382.048462 1762.591675,1380.406250 
	C1768.893677,1375.004517 1775.777832,1376.458740 1782.263428,1378.809448 
	C1798.386108,1384.653442 1815.401489,1383.953125 1833.373291,1386.840942 
	C1837.340576,1388.029541 1839.908447,1388.799316 1842.476440,1389.569092 
	C1865.118652,1391.893555 1887.757324,1394.252563 1910.405273,1396.519165 
	C1916.319214,1397.111084 1922.261963,1397.415283 1929.455811,1398.081055 
	C1931.823853,1398.249023 1932.927490,1398.187378 1934.031128,1398.125732 
	C1944.340820,1398.616699 1954.648804,1399.491089 1964.960327,1399.534912 
	C2021.927979,1399.776611 2078.896484,1399.816406 2135.864502,1399.924316 
	C2138.834473,1399.930054 2141.804199,1399.925171 2146.434570,1399.925171 
	C2145.081055,1404.080933 2144.181641,1407.371826 2142.953613,1410.534912 
	C2123.075439,1461.731323 2103.054688,1512.872437 2083.291748,1564.113281 
	C2074.557861,1586.758667 2070.502441,1610.311768 2072.119385,1634.597412 
	C2073.825928,1660.230835 2078.393311,1685.163330 2089.966553,1708.559448 
	C2096.619873,1722.009155 2105.831299,1733.188843 2116.818604,1742.980835 
	C2134.220215,1758.489746 2152.431641,1773.110962 2169.489990,1788.979248 
	C2196.538086,1814.140137 2223.575195,1839.375122 2249.422119,1865.749634 
	C2286.742676,1903.831665 2320.132568,1945.433105 2354.135986,1986.457397 
	C2374.763672,2011.344360 2395.780518,2036.043945 2420.808105,2056.585205 
	C2438.515137,2071.118164 2457.995117,2083.486816 2476.633789,2096.890625 
	C2493.646484,2109.125000 2511.225586,2120.682129 2527.383057,2133.963379 
	C2542.473877,2146.367920 2554.027344,2162.088135 2559.024658,2181.486572 
	C2564.470703,2202.627441 2570.067139,2223.781494 2574.172607,2245.202881 
	C2579.824707,2274.692871 2592.583252,2300.591309 2610.863525,2325.295166 
	C2611.494873,2326.724854 2611.750244,2327.147949 2612.062012,2327.537109 
	C2612.308350,2328.131836 2612.562988,2328.723389 2613.325684,2330.408203 
	C2617.980225,2340.190430 2622.847900,2348.233887 2632.355957,2352.102539 
	C2632.990967,2352.289307 2633.478271,2352.666992 2634.245117,2354.046631 
	C2635.303467,2355.408936 2635.934570,2355.959961 2636.565918,2356.510986 
	C2636.565918,2356.510986 2636.924561,2356.778320 2637.126221,2357.228271 
	C2637.519043,2357.982666 2637.778809,2358.208252 2638.106689,2358.354736 
	C2638.106689,2358.354736 2638.790527,2359.003174 2639.110352,2359.539551 
	C2639.430176,2360.076172 2639.960449,2360.548096 2639.960449,2360.548096 
	C2639.960449,2360.548096 2640.622314,2361.213379 2640.955566,2361.846191 
	C2641.460205,2362.810059 2641.675781,2363.109619 2641.935547,2363.377441 
	C2659.690918,2384.987549 2677.551270,2406.512207 2695.178955,2428.226318 
	C2725.401855,2465.455078 2755.556885,2502.739990 2785.594971,2540.118408 
	C2811.249756,2572.042725 2836.576660,2604.230957 2862.280762,2636.115234 
	C2881.506104,2659.962646 2901.323242,2683.334229 2920.482910,2707.233398 
	C2953.389893,2748.280762 2986.065674,2789.514160 3018.696289,2830.781738 
	C3051.329590,2872.052734 3083.699707,2913.531738 3116.347168,2954.791260 
	C3153.331055,3001.530518 3190.491943,3048.130127 3227.582764,3094.785156 
	C3239.020264,3109.171631 3249.281006,3124.289795 3256.854004,3141.124268 
	C3267.112305,3163.927979 3263.770020,3183.938721 3245.895996,3201.418457 
	C3239.512207,3207.661377 3232.210449,3213.054932 3224.919678,3218.265625 
	C3199.734863,3236.266602 3174.371094,3254.016602 3147.871582,3272.396729 
	C3143.024902,3275.848145 3139.381836,3278.765137 3135.739014,3281.681885 
	C3135.739014,3281.681885 3135.883301,3281.780518 3135.369629,3282.093750 
	C3134.433838,3282.988281 3134.011963,3283.569824 3133.589844,3284.151367 
	C3115.079834,3300.050049 3094.828369,3313.486816 3072.981445,3324.151367 
	C3034.152832,3343.105713 2994.895264,3361.180420 2955.854004,3379.700439 
	C2925.091553,3394.293701 2895.456055,3410.835205 2870.565674,3434.412598 
	C2856.591553,3447.649414 2843.750244,3462.091309 2830.544678,3476.127686 
	C2815.066895,3492.579590 2800.020508,3509.448730 2784.194092,3525.554199 
	C2779.433594,3530.398926 2772.694580,3533.299561 2765.491699,3537.513672 
	C2753.055664,3542.653320 2741.764648,3543.750244 2730.174805,3540.051270 
z"/>
<path fill="#2075AB" opacity="1.000000" stroke="none" 
	d="
M1837.981445,2424.010986 
	C1836.046265,2465.085449 1819.525269,2497.929932 1782.894531,2518.482178 
	C1770.472168,2525.451660 1756.883789,2530.430908 1743.608643,2535.774170 
	C1717.018799,2546.476318 1697.075684,2564.600830 1681.015503,2588.129883 
	C1639.885620,2648.388184 1598.155273,2708.237061 1556.663940,2768.248779 
	C1535.442749,2798.942383 1514.470947,2829.812500 1492.920288,2860.273193 
	C1474.452881,2886.375732 1455.286987,2911.983643 1436.495361,2937.857666 
	C1423.379028,2955.917480 1410.483643,2974.138428 1397.294312,2992.144775 
	C1370.719971,3028.424316 1344.010010,3064.604492 1317.360474,3100.828857 
	C1292.089233,3135.179932 1266.692017,3169.439453 1241.594238,3203.916992 
	C1217.478271,3237.046143 1193.772583,3270.473633 1169.697510,3303.632812 
	C1155.560913,3323.103516 1139.732910,3341.113281 1121.218506,3356.589844 
	C1095.412354,3378.162109 1066.086548,3385.192871 1032.643799,3380.745605 
	C996.158447,3375.893555 960.586243,3367.767822 925.812683,3356.185547 
	C877.626343,3340.135742 831.460022,3319.681641 789.043091,3291.267578 
	C745.416382,3262.043213 704.412659,3229.696045 669.416809,3190.394531 
	C657.048401,3176.504395 646.038391,3161.289795 635.435425,3145.968994 
	C618.562378,3121.587646 602.519775,3096.628662 590.482361,3069.367676 
	C582.640198,3051.607178 575.667664,3033.711914 576.352661,3013.688232 
	C576.721558,3002.904053 579.731567,2993.600098 586.616943,2985.199707 
	C601.453125,2967.099121 620.370117,2953.871094 639.918579,2941.895264 
	C701.550232,2904.137207 763.661682,2867.162109 825.607361,2829.916992 
	C882.700073,2795.589600 940.123169,2761.799072 996.825806,2726.839355 
	C1039.065186,2700.797363 1080.245239,2673.043213 1122.157471,2646.461914 
	C1163.864380,2620.011230 1202.684204,2589.597412 1242.369019,2560.347656 
	C1279.955078,2532.645508 1316.629517,2503.838867 1350.958618,2472.187988 
	C1377.886230,2447.360840 1404.946411,2422.665527 1427.631714,2393.584229 
	C1454.262939,2359.444336 1472.805420,2321.471924 1484.048462,2279.829590 
	C1487.747192,2266.129639 1490.435669,2252.152832 1494.277100,2238.497070 
	C1496.963745,2228.946777 1500.765015,2219.705078 1504.176025,2210.364746 
	C1507.757568,2200.557129 1514.548218,2193.308838 1523.249756,2187.930664 
	C1532.311035,2182.329834 1541.404541,2176.686523 1550.917480,2171.928955 
	C1580.618774,2157.074707 1601.123413,2133.040527 1618.901733,2105.905518 
	C1639.635864,2074.259033 1654.302002,2039.569458 1670.353760,2005.557373 
	C1679.021851,1987.190674 1688.115601,1969.019409 1696.495239,1950.523315 
	C1710.519653,1919.567383 1724.130737,1888.423950 1737.906616,1857.355469 
	C1743.700806,1844.287842 1750.210938,1831.647339 1758.874634,1820.715088 
	C1768.630493,1829.860596 1778.654297,1838.111084 1787.335571,1847.591064 
	C1828.056274,1892.057251 1868.477173,1936.799316 1908.839233,1981.592285 
	C1918.198242,1991.978516 1927.032349,2002.849487 1935.818237,2013.731323 
	C1937.785156,2016.167603 1938.534668,2019.586914 1939.590698,2023.750244 
	C1939.442871,2026.624756 1939.549072,2028.302490 1939.655273,2029.980347 
	C1939.594849,2030.643066 1939.436768,2031.313354 1939.488037,2031.967285 
	C1941.615967,2059.129883 1934.073975,2084.931885 1928.573853,2111.054688 
	C1921.226196,2145.951904 1911.354980,2180.126709 1899.610107,2213.754883 
	C1887.782715,2247.619141 1875.265137,2281.242676 1863.476929,2315.120361 
	C1858.063477,2330.678223 1853.670898,2346.591553 1848.813599,2362.343018 
	C1848.715820,2362.660400 1848.493286,2362.975098 1848.503906,2363.284912 
	C1848.822876,2372.600098 1846.782471,2381.518066 1843.825684,2391.610107 
	C1843.641113,2394.614746 1843.619019,2396.320801 1843.596924,2398.026611 
	C1843.444458,2399.453613 1843.291992,2400.880371 1842.692383,2403.370117 
	C1842.083862,2406.303711 1841.922485,2408.174561 1841.761230,2410.045654 
	C1841.564697,2412.103760 1841.368286,2414.161621 1840.676514,2417.429688 
	C1839.447876,2420.430420 1838.714722,2422.220703 1837.981445,2424.010986 
z"/>
<path fill="#205235" opacity="1.000000" stroke="none" 
	d="
M2356.473633,511.859863 
	C2359.005371,518.365723 2361.823242,524.776611 2364.020996,531.393372 
	C2375.697021,566.543701 2389.095459,601.009399 2406.073975,633.945312 
	C2417.988281,657.057678 2431.146973,679.440125 2448.707764,698.958862 
	C2459.355713,710.794006 2471.857666,720.126343 2485.880859,727.223389 
	C2491.615479,730.125671 2498.493652,731.763672 2504.939941,732.061829 
	C2519.231201,732.722839 2533.582520,732.366516 2547.901611,732.055969 
	C2559.473877,731.804932 2570.156738,727.962219 2580.112061,722.296753 
	C2604.804199,708.244385 2628.492676,692.603882 2648.572021,672.390442 
	C2682.429199,638.307373 2718.996826,607.274170 2754.979980,575.553223 
	C2786.255859,547.982117 2818.837402,522.099487 2852.589844,497.677155 
	C2862.565430,490.459259 2873.061523,483.952728 2883.422607,477.281525 
	C2886.407227,475.359741 2889.754639,474.000854 2893.044434,472.328583 
	C2896.792236,476.890533 2894.265625,480.744781 2893.435791,484.299500 
	C2889.348145,501.811646 2884.817871,519.220581 2880.736328,536.734070 
	C2875.804199,557.897827 2875.851318,578.696716 2883.163330,599.682434 
	C2893.077881,628.137756 2911.220215,648.028198 2940.071289,656.713196 
	C2956.588135,661.685303 2973.707520,664.827759 2990.706055,667.985291 
	C3013.948486,672.302612 3037.345215,675.784058 3060.653564,679.754272 
	C3073.970703,682.022522 3077.065430,685.043213 3077.869873,698.694946 
	C3078.354980,706.929260 3078.062500,715.393188 3076.694824,723.513916 
	C3074.040771,739.271118 3070.629883,754.916565 3067.022705,770.490234 
	C3065.456299,777.253357 3063.032227,783.897949 3060.281006,790.287964 
	C3056.052002,800.112122 3049.069824,807.368347 3038.965820,811.663574 
	C2994.522705,830.556580 2950.431641,850.309753 2905.688721,868.459167 
	C2834.071533,897.509949 2762.013428,925.472839 2690.198242,954.037964 
	C2669.431152,962.298279 2648.926270,971.240234 2631.402588,985.534729 
	C2621.342041,993.741455 2611.880371,1002.684509 2601.792236,1010.855225 
	C2588.095947,1021.948242 2574.504883,1033.260742 2560.058594,1043.315430 
	C2540.191895,1057.142578 2517.352295,1063.388428 2493.447998,1065.354858 
	C2486.242920,1065.947510 2478.683350,1065.408813 2471.610596,1063.883545 
	C2440.606445,1057.196777 2412.882812,1043.922363 2391.516357,1019.878967 
	C2383.830322,1011.229858 2377.228271,1001.402771 2371.370605,991.388428 
	C2359.600830,971.266357 2348.275635,950.858215 2337.500000,930.185974 
	C2317.080322,891.011353 2289.626709,857.390259 2257.904785,826.987488 
	C2252.133545,821.456238 2246.351318,815.896240 2241.038330,809.935791 
	C2232.555664,800.419617 2228.003662,789.302368 2227.922852,776.296570 
	C2227.860840,766.334351 2226.523682,756.375305 2226.570312,746.418640 
	C2226.607178,738.518860 2227.601318,730.587097 2228.659668,722.735535 
	C2231.552246,701.281067 2234.691650,679.859863 2237.758789,658.429016 
	C2238.749268,651.507446 2239.818115,644.597046 2241.578613,636.490356 
	C2244.402344,631.591003 2247.511719,628.109070 2248.399414,624.131348 
	C2250.799316,613.376648 2256.245361,604.485291 2263.046143,596.152710 
	C2269.995605,587.637817 2273.286377,577.123230 2274.807373,566.875549 
	C2277.186035,550.854553 2277.577148,534.470337 2277.816162,518.225342 
	C2277.959961,508.457245 2281.211182,501.013000 2288.330811,494.560699 
	C2297.881592,485.904907 2300.875244,486.506927 2304.367920,499.079559 
	C2305.864990,504.467773 2309.579346,506.472260 2314.481934,507.228668 
	C2319.425049,507.991302 2322.743896,505.849182 2324.853271,501.370422 
	C2326.158691,498.598694 2327.811768,495.990845 2330.081787,491.924866 
	C2334.106201,496.471008 2337.024902,499.504730 2339.639404,502.781189 
	C2343.992920,508.236908 2349.064941,512.161743 2356.473633,511.859863 
z"/>
<path fill="#1A492D" opacity="1.000000" stroke="none" 
	d="
M2356.388916,511.072968 
	C2349.064941,512.161743 2343.992920,508.236908 2339.639404,502.781189 
	C2337.024902,499.504730 2334.106201,496.471008 2330.081787,491.924866 
	C2327.811768,495.990845 2326.158691,498.598694 2324.853271,501.370422 
	C2322.743896,505.849182 2319.425049,507.991302 2314.481934,507.228668 
	C2309.579346,506.472260 2305.864990,504.467773 2304.367920,499.079559 
	C2300.875244,486.506927 2297.881592,485.904907 2288.330811,494.560699 
	C2281.211182,501.013000 2277.959961,508.457245 2277.816162,518.225342 
	C2277.577148,534.470337 2277.186035,550.854553 2274.807373,566.875549 
	C2273.286377,577.123230 2269.995605,587.637817 2263.046143,596.152710 
	C2256.245361,604.485291 2250.799316,613.376648 2248.399414,624.131348 
	C2247.511719,628.109070 2244.402344,631.591003 2241.820068,635.645508 
	C2243.066406,623.159241 2244.471436,610.271973 2246.596680,597.504578 
	C2251.735107,566.631775 2257.822998,535.978577 2268.059326,506.272949 
	C2273.193115,491.375000 2279.803711,477.262787 2288.639648,464.273010 
	C2291.974609,459.370178 2295.977051,454.742676 2300.388916,450.785217 
	C2312.744629,439.701935 2331.274414,443.282990 2337.679443,458.697632 
	C2344.686523,475.561859 2350.161377,493.062714 2356.388916,511.072968 
z"/>
<path fill="#355061" opacity="1.000000" stroke="none" 
	d="
M1556.981689,1481.979736 
	C1558.425537,1495.924683 1559.241455,1510.690796 1560.628540,1525.402954 
	C1561.490112,1534.541382 1563.217285,1543.598389 1564.339844,1553.343140 
	C1561.449219,1538.787354 1558.229004,1523.648438 1556.316406,1508.346191 
	C1555.269043,1499.966064 1556.430054,1491.309692 1556.981689,1481.979736 
z"/>
<path fill="#5C787D" opacity="1.000000" stroke="none" 
	d="
M2632.013184,2351.487549 
	C2622.847900,2348.233887 2617.980225,2340.190430 2613.610840,2330.797852 
	C2619.487549,2337.017822 2625.578857,2343.945312 2632.013184,2351.487549 
z"/>
<path fill="#2A5C3F" opacity="1.000000" stroke="none" 
	d="
M2730.733398,3540.537109 
	C2741.764648,3543.750244 2753.055664,3542.653320 2764.889404,3537.862793 
	C2754.695557,3544.108887 2743.381592,3546.686035 2730.733398,3540.537109 
z"/>
<path fill="#202616" opacity="1.000000" stroke="none" 
	d="
M872.580200,972.831299 
	C879.472351,972.674133 887.149719,972.765015 895.614929,973.162231 
	C888.723633,973.338867 881.044495,973.209106 872.580200,972.831299 
z"/>
<path fill="#202616" opacity="1.000000" stroke="none" 
	d="
M710.485962,1064.395264 
	C717.205688,1064.049316 724.689209,1064.039307 733.092651,1064.085327 
	C726.499207,1067.204834 718.889771,1066.556763 710.485962,1064.395264 
z"/>
<path fill="#5C787D" opacity="1.000000" stroke="none" 
	d="
M3136.254150,3281.225342 
	C3139.381836,3278.765137 3143.024902,3275.848145 3147.269287,3272.777100 
	C3144.170410,3275.338135 3140.469727,3278.053467 3136.254150,3281.225342 
z"/>
<path fill="#194463" opacity="1.000000" stroke="none" 
	d="
M1842.156128,1388.925171 
	C1839.908447,1388.799316 1837.340576,1388.029541 1834.238892,1386.882202 
	C1836.415405,1387.096924 1839.125610,1387.689087 1842.156128,1388.925171 
z"/>
<path fill="#194463" opacity="1.000000" stroke="none" 
	d="
M1939.935303,2029.540527 
	C1939.549072,2028.302490 1939.442871,2026.624756 1939.573730,2024.491089 
	C1939.945557,2025.723755 1940.080444,2027.412109 1939.935303,2029.540527 
z"/>
<path fill="#194463" opacity="1.000000" stroke="none" 
	d="
M1843.896973,2397.575195 
	C1843.619019,2396.320801 1843.641113,2394.614746 1843.849365,2392.417480 
	C1844.089355,2393.658447 1844.143188,2395.391357 1843.896973,2397.575195 
z"/>
<path fill="#194463" opacity="1.000000" stroke="none" 
	d="
M1842.095703,2409.472168 
	C1841.922485,2408.174561 1842.083862,2406.303711 1842.580566,2404.078613 
	C1842.754028,2405.449219 1842.592163,2407.174072 1842.095703,2409.472168 
z"/>
<path fill="#194463" opacity="1.000000" stroke="none" 
	d="
M1838.380127,2423.537598 
	C1838.714722,2422.220703 1839.447876,2420.430420 1840.566406,2418.197510 
	C1840.227295,2419.524902 1839.503052,2421.294678 1838.380127,2423.537598 
z"/>
<path fill="#062C3D" opacity="1.000000" stroke="none" 
	d="
M1933.669189,1397.895996 
	C1932.927490,1398.187378 1931.823853,1398.249023 1930.356567,1398.087402 
	C1931.097656,1397.798340 1932.202515,1397.732178 1933.669189,1397.895996 
z"/>
<path fill="#202616" opacity="1.000000" stroke="none" 
	d="
M734.749878,1064.061768 
	C735.665649,1063.418457 737.225647,1062.719116 739.432800,1061.945557 
	C738.518066,1062.582642 736.956055,1063.294067 734.749878,1064.061768 
z"/>
<path fill="#5C787D" opacity="1.000000" stroke="none" 
	d="
M2636.367188,2356.149902 
	C2635.934570,2355.959961 2635.303467,2355.408936 2634.432861,2354.478760 
	C2634.851807,2354.662842 2635.510010,2355.225830 2636.367188,2356.149902 
z"/>
<path fill="#194463" opacity="1.000000" stroke="none" 
	d="
M2116.764160,2286.355469 
	C2117.053955,2286.364014 2117.235840,2287.017090 2117.212402,2287.964355 
	C2116.890137,2287.839111 2116.772949,2287.419678 2116.764160,2286.355469 
z"/>
<path fill="#194463" opacity="1.000000" stroke="none" 
	d="
M2116.990723,2297.825684 
	C2117.365723,2297.920410 2117.514648,2298.357910 2117.715332,2299.486328 
	C2117.433105,2299.507812 2117.099121,2298.838135 2116.990723,2297.825684 
z"/>
<path fill="#5C787D" opacity="1.000000" stroke="none" 
	d="
M2612.079590,2327.137207 
	C2611.750244,2327.147949 2611.494873,2326.724854 2611.184570,2325.925049 
	C2611.584961,2325.816406 2611.926025,2326.201416 2612.079590,2327.137207 
z"/>
<path fill="#5C787D" opacity="1.000000" stroke="none" 
	d="
M2638.016602,2358.109375 
	C2637.778809,2358.208252 2637.519043,2357.982666 2637.211182,2357.435059 
	C2637.443604,2357.328369 2637.720703,2357.552246 2638.016602,2358.109375 
z"/>
<path fill="#5C787D" opacity="1.000000" stroke="none" 
	d="
M2639.940430,2360.362061 
	C2639.960449,2360.548096 2639.430176,2360.076172 2639.388184,2359.920410 
	C2639.345947,2359.764404 2639.920410,2360.176025 2639.940430,2360.362061 
z"/>
<path fill="#5C787D" opacity="1.000000" stroke="none" 
	d="
M2641.925537,2363.081299 
	C2641.675781,2363.109619 2641.460205,2362.810059 2641.217285,2362.235352 
	C2641.532471,2362.130127 2641.788818,2362.394531 2641.925537,2363.081299 
z"/>
<path fill="#5C787D" opacity="1.000000" stroke="none" 
	d="
M3134.123047,3283.923096 
	C3134.011963,3283.569824 3134.433838,3282.988281 3135.283691,3282.078369 
	C3135.359619,3282.398193 3135.008057,3283.046387 3134.123047,3283.923096 
z"/>
<path fill="#000100" opacity="1.000000" stroke="none" 
	d="
M1411.598633,969.583374 
	C1393.975830,989.620483 1376.478271,1008.840393 1359.853149,1028.787354 
	C1344.253662,1047.503906 1328.545898,1066.082520 1309.997681,1081.927368 
	C1303.233154,1087.706055 1295.557373,1092.734009 1287.609131,1096.738770 
	C1274.759399,1103.213257 1264.806641,1097.609009 1264.159302,1083.063721 
	C1263.691528,1072.549927 1264.273804,1061.501099 1267.080444,1051.442139 
	C1271.532227,1035.486816 1277.107056,1019.626831 1284.178955,1004.658203 
	C1314.966797,939.490173 1351.766968,877.665955 1390.015991,816.652649 
	C1403.636353,794.926086 1415.910767,772.359192 1428.993286,750.290710 
	C1436.466431,737.684631 1444.342285,725.317688 1452.012695,712.828247 
	C1456.548218,705.442932 1462.738403,699.907104 1471.090332,697.558533 
	C1487.739258,692.876953 1504.446411,688.368835 1521.244263,684.257812 
	C1563.942749,673.808105 1606.704102,663.615479 1649.441284,653.324158 
	C1653.001953,652.466675 1656.532471,651.377197 1660.143433,650.857727 
	C1667.092041,649.858337 1670.210449,652.935669 1669.239014,659.908081 
	C1668.830933,662.837646 1667.803833,665.741150 1666.677246,668.501038 
	C1655.362793,696.216919 1645.917969,724.684265 1630.384033,750.630676 
	C1612.941895,779.763855 1596.984985,809.785034 1579.601685,838.954895 
	C1571.609985,852.365295 1561.965698,864.820251 1552.685303,877.424500 
	C1544.797241,888.137573 1533.537964,894.995911 1522.193237,901.296021 
	C1504.143433,911.319763 1485.905396,921.058167 1467.352051,930.107605 
	C1446.762207,940.150269 1428.185547,952.780457 1411.598633,969.583374 
z"/>
</svg>